<?xml version="1.0" encoding="utf-8"?>
<!-- Generator: Adobe Illustrator 23.1.1, SVG Export Plug-In . SVG Version: 6.00 Build 0)  -->
<svg version="1.0" id="Ebene_1" xmlns="http://www.w3.org/2000/svg" xmlns:xlink="http://www.w3.org/1999/xlink" x="0px" y="0px"
	 viewBox="0 0 50 50" style="enable-background:new 0 0 50 50;" xml:space="preserve">
<style type="text/css">
	.st0{fill-rule:evenodd;clip-rule:evenodd;fill:#FFFFFF;}
	.st1{fill:#FFFFFF;}
	.st2{fill:none;stroke:#FFFFFF;stroke-width:2;stroke-miterlimit:10;}
</style>
<path class="st0" d="M25,0C11.2,0,0,11.2,0,25s11.2,25,25,25s25-11.2,25-25S38.8,0,25,0z M15,14c0-0.6,0.4-1,1-1h2c0.6,0,1,0.4,1,1
	v4c0,0.6-0.4,1-1,1h-2c-0.6,0-1-0.4-1-1V14z M12,15h2v2h-2c-0.6,0-1-0.4-1-1S11.4,15,12,15z M12,24h16v2H12c-0.6,0-1-0.4-1-1
	S11.4,24,12,24z M17,35h-5c-0.6,0-1-0.4-1-1s0.4-1,1-1h5V35z M22,36c0,0.6-0.4,1-1,1h-2c-0.6,0-1-0.4-1-1v-4c0-0.6,0.4-1,1-1h2
	c0.6,0,1,0.4,1,1V36z M38,35H23v-2h15c0.6,0,1,0.4,1,1S38.6,35,38,35z M29,27v-4c0-0.6,0.4-1,1-1h2c0.6,0,1,0.4,1,1v4
	c0,0.6-0.4,1-1,1h-2C29.4,28,29,27.6,29,27z M38,26h-4v-2h4c0.6,0,1,0.4,1,1S38.6,26,38,26z M38,17H20v-2h18c0.6,0,1,0.4,1,1
	S38.6,17,38,17z"/>
</svg>
