<?xml version="1.0" encoding="utf-8"?>
<!-- Generator: Adobe Illustrator 23.1.1, SVG Export Plug-In . SVG Version: 6.00 Build 0)  -->
<svg version="1.0" id="Ebene_1" xmlns="http://www.w3.org/2000/svg" xmlns:xlink="http://www.w3.org/1999/xlink" x="0px" y="0px"
	 viewBox="0 0 50 50" style="enable-background:new 0 0 50 50;" xml:space="preserve">
<style type="text/css">
	.st0{fill-rule:evenodd;clip-rule:evenodd;fill:#FFFFFF;}
	.st1{fill:#FFFFFF;}
	.st2{fill:none;stroke:#FFFFFF;stroke-width:2;stroke-miterlimit:10;}
</style>
<path class="st0" d="M16.4,13h2c0.6,0,1,0.4,1,1v4c0,0.6-0.4,1-1,1h-2c-0.6,0-1-0.4-1-1v-4C15.4,13.4,15.8,13,16.4,13z"/>
<path class="st0" d="M30.4,22h2c0.6,0,1,0.4,1,1v4c0,0.6-0.4,1-1,1h-2c-0.6,0-1-0.4-1-1v-4C29.4,22.4,29.8,22,30.4,22z"/>
<path class="st0" d="M19.4,31h2c0.6,0,1,0.4,1,1v4c0,0.6-0.4,1-1,1h-2c-0.6,0-1-0.4-1-1v-4C18.4,31.4,18.8,31,19.4,31z"/>
<g>
	<path class="st0" d="M14.4,15h-2c-0.6,0-1,0.4-1,1s0.4,1,1,1h2V15z"/>
	<path class="st0" d="M38.4,15h-18v2h18c0.6,0,1-0.4,1-1S38.9,15,38.4,15z"/>
</g>
<g>
	<path class="st0" d="M28.4,24h-16c-0.6,0-1,0.4-1,1s0.4,1,1,1h16V24z"/>
	<path class="st0" d="M38.4,24h-4v2h4c0.6,0,1-0.4,1-1S38.9,24,38.4,24z"/>
</g>
<g>
	<path class="st0" d="M38.4,33h-15v2h15c0.6,0,1-0.4,1-1S38.9,33,38.4,33z"/>
	<path class="st0" d="M17.4,33h-5c-0.6,0-1,0.4-1,1s0.4,1,1,1h5V33z"/>
</g>
</svg>
