<?xml version="1.0" encoding="utf-8"?>
<!-- Generator: Adobe Illustrator 23.1.1, SVG Export Plug-In . SVG Version: 6.00 Build 0)  -->
<svg version="1.0" id="Ebene_1" xmlns="http://www.w3.org/2000/svg" xmlns:xlink="http://www.w3.org/1999/xlink" x="0px" y="0px"
	 viewBox="0 0 50 50" style="enable-background:new 0 0 50 50;" xml:space="preserve">
<style type="text/css">
	.st0{fill-rule:evenodd;clip-rule:evenodd;fill:#FFFFFF;}
	.st1{fill:#FFFFFF;}
	.st2{fill:none;stroke:#FFFFFF;stroke-width:2;stroke-miterlimit:10;}
</style>
<path class="st0" d="M16,13h2c0.6,0,1,0.4,1,1v4c0,0.6-0.4,1-1,1h-2c-0.6,0-1-0.4-1-1v-4C15,13.4,15.4,13,16,13z"/>
<path class="st0" d="M30,22h2c0.6,0,1,0.4,1,1v4c0,0.6-0.4,1-1,1h-2c-0.6,0-1-0.4-1-1v-4C29,22.4,29.4,22,30,22z"/>
<path class="st0" d="M19,31h2c0.6,0,1,0.4,1,1v4c0,0.6-0.4,1-1,1h-2c-0.6,0-1-0.4-1-1v-4C18,31.4,18.4,31,19,31z"/>
<g>
	<path class="st0" d="M14,15h-2c-0.6,0-1,0.4-1,1s0.4,1,1,1h2V15z"/>
	<path class="st0" d="M38,15H20v2h18c0.6,0,1-0.4,1-1S38.6,15,38,15z"/>
</g>
<g>
	<path class="st0" d="M28,24H12c-0.6,0-1,0.4-1,1s0.4,1,1,1h16V24z"/>
	<path class="st0" d="M38,24h-4v2h4c0.6,0,1-0.4,1-1S38.6,24,38,24z"/>
</g>
<g>
	<path class="st0" d="M38,33H23v2h15c0.6,0,1-0.4,1-1S38.6,33,38,33z"/>
	<path class="st0" d="M17,33h-5c-0.6,0-1,0.4-1,1s0.4,1,1,1h5V33z"/>
</g>
<path class="st1" d="M25,2c12.7,0,23,10.3,23,23S37.7,48,25,48S2,37.7,2,25S12.3,2,25,2 M25,0C11.2,0,0,11.2,0,25s11.2,25,25,25
	s25-11.2,25-25S38.8,0,25,0L25,0z"/>
</svg>
