<?xml version="1.0" encoding="utf-8"?>
<!-- Generator: Adobe Illustrator 23.1.1, SVG Export Plug-In . SVG Version: 6.00 Build 0)  -->
<svg version="1.0" id="Ebene_1" xmlns="http://www.w3.org/2000/svg" xmlns:xlink="http://www.w3.org/1999/xlink" x="0px" y="0px"
	 viewBox="0 0 50 50" style="enable-background:new 0 0 50 50;" xml:space="preserve">
<style type="text/css">
	.st0{fill-rule:evenodd;clip-rule:evenodd;fill:#FFFFFF;}
	.st1{fill:#FFFFFF;}
	.st2{fill:none;stroke:#FFFFFF;stroke-width:2;stroke-miterlimit:10;}
	.st3{clip-path:url(#SVGID_2_);}
	.st4{clip-path:url(#SVGID_4_);}
</style>
<path class="st0" d="M16.4,11h2c0.6,0,1,0.4,1,1v4c0,0.6-0.4,1-1,1h-2c-0.6,0-1-0.4-1-1v-4C15.4,11.4,15.8,11,16.4,11z"/>
<path class="st0" d="M30.4,22h2c0.6,0,1,0.4,1,1v4c0,0.6-0.4,1-1,1h-2c-0.6,0-1-0.4-1-1v-4C29.4,22.4,29.8,22,30.4,22z"/>
<path class="st0" d="M19.4,33h2c0.6,0,1,0.4,1,1v4c0,0.6-0.4,1-1,1h-2c-0.6,0-1-0.4-1-1v-4C18.4,33.4,18.8,33,19.4,33z"/>
<g>
	<path class="st0" d="M13.4,13h-2c-0.6,0-1,0.4-1,1s0.4,1,1,1h2V13z"/>
	<path class="st0" d="M39.4,13h-18v2h18c0.6,0,1-0.4,1-1S39.9,13,39.4,13z"/>
</g>
<g>
	<path class="st0" d="M27.4,24h-16c-0.6,0-1,0.4-1,1s0.4,1,1,1h16V24z"/>
	<path class="st0" d="M39.4,24h-4v2h4c0.6,0,1-0.4,1-1S39.9,24,39.4,24z"/>
</g>
<g>
	<path class="st0" d="M39.4,35h-15v2h15c0.6,0,1-0.4,1-1S39.9,35,39.4,35z"/>
	<path class="st0" d="M16.4,35h-5c-0.6,0-1,0.4-1,1s0.4,1,1,1h5V35z"/>
</g>
</svg>
