<?xml version="1.0" encoding="utf-8"?>
<!-- Generator: Adobe Illustrator 23.1.1, SVG Export Plug-In . SVG Version: 6.00 Build 0)  -->
<svg version="1.0" id="Ebene_1" xmlns="http://www.w3.org/2000/svg" xmlns:xlink="http://www.w3.org/1999/xlink" x="0px" y="0px"
	 viewBox="0 0 50 50" style="enable-background:new 0 0 50 50;" xml:space="preserve">
<style type="text/css">
	.st0{fill-rule:evenodd;clip-rule:evenodd;fill:#FFFFFF;}
	.st1{fill:#FFFFFF;}
	.st2{fill:none;stroke:#FFFFFF;stroke-width:2;stroke-miterlimit:10;}
	.st3{clip-path:url(#SVGID_2_);}
	.st4{clip-path:url(#SVGID_4_);}
</style>
<g>
	<g>
		<g>
			<path class="st1" d="M31.3,19.7c-0.3,0-0.5-0.1-0.7-0.3c-0.4-0.4-0.4-1,0-1.4l7.6-7.6c0.4-0.4,1-0.4,1.4,0s0.4,1,0,1.4L32,19.4
				C31.9,19.6,31.6,19.7,31.3,19.7z"/>
		</g>
		<g>
			<path class="st1" d="M39,19.8c-0.6,0-1-0.4-1-1v-6.8h-6.8c-0.6,0-1-0.4-1-1s0.4-1,1-1H39c0.6,0,1,0.4,1,1v7.8
				C40,19.4,39.5,19.8,39,19.8z"/>
		</g>
	</g>
	<g>
		<g>
			<path class="st1" d="M18.7,30.3c0.3,0,0.5,0.1,0.7,0.3c0.4,0.4,0.4,1,0,1.4l-7.6,7.6c-0.4,0.4-1,0.4-1.4,0s-0.4-1,0-1.4l7.6-7.6
				C18.1,30.4,18.4,30.3,18.7,30.3z"/>
		</g>
		<g>
			<path class="st1" d="M11,30.2c0.6,0,1,0.4,1,1v6.8h6.8c0.6,0,1,0.4,1,1s-0.4,1-1,1H11c-0.6,0-1-0.4-1-1v-7.8
				C10,30.6,10.5,30.2,11,30.2z"/>
		</g>
	</g>
</g>
<g>
	<defs>
		<path id="SVGID_1_" d="M38,12v26H12V12H38 M38,10H12c-1.1,0-2,0.9-2,2v26c0,1.1,0.9,2,2,2h26c1.1,0,2-0.9,2-2V12
			C40,10.9,39.1,10,38,10L38,10z"/>
	</defs>
	<clipPath id="SVGID_2_">
		<use xlink:href="#SVGID_1_"  style="overflow:visible;"/>
	</clipPath>
	<g class="st3">
		<rect x="26" y="26" transform="matrix(-1.836970e-16 1 -1 -1.836970e-16 66 -1.653691e-05)" class="st1" width="14" height="14"/>
		<rect x="10" y="10" transform="matrix(-1.836970e-16 1 -1 -1.836970e-16 34 -1.653691e-05)" class="st1" width="14" height="14"/>
	</g>
</g>
</svg>
