<?xml version="1.0" encoding="utf-8"?>
<!-- Generator: Adobe Illustrator 23.1.1, SVG Export Plug-In . SVG Version: 6.00 Build 0)  -->
<svg version="1.0" id="Ebene_1" xmlns="http://www.w3.org/2000/svg" xmlns:xlink="http://www.w3.org/1999/xlink" x="0px" y="0px"
	 viewBox="0 0 50 50" style="enable-background:new 0 0 50 50;" xml:space="preserve">
<style type="text/css">
	.st0{fill-rule:evenodd;clip-rule:evenodd;fill:#FFFFFF;}
	.st1{fill:#FFFFFF;}
	.st2{fill:none;stroke:#FFFFFF;stroke-width:2;stroke-miterlimit:10;}
</style>
<g>
	<g>
		<g>
			<path class="st1" d="M29.6,21.4c-0.3,0-0.5-0.1-0.7-0.3c-0.4-0.4-0.4-1,0-1.4l7.6-7.6c0.4-0.4,1-0.4,1.4,0s0.4,1,0,1.4l-7.6,7.6
				C30.1,21.3,29.9,21.4,29.6,21.4z"/>
		</g>
		<g>
			<path class="st1" d="M37.2,21.6c-0.6,0-1-0.4-1-1v-6.8h-6.8c-0.6,0-1-0.4-1-1s0.4-1,1-1h7.8c0.6,0,1,0.4,1,1v7.8
				C38.2,21.1,37.8,21.6,37.2,21.6z"/>
		</g>
	</g>
	<g>
		<g>
			<path class="st1" d="M20.4,28.6c0.3,0,0.5,0.1,0.7,0.3c0.4,0.4,0.4,1,0,1.4l-7.6,7.6c-0.4,0.4-1,0.4-1.4,0s-0.4-1,0-1.4l7.6-7.6
				C19.9,28.7,20.1,28.6,20.4,28.6z"/>
		</g>
		<g>
			<path class="st1" d="M12.8,28.4c0.6,0,1,0.4,1,1v6.8h6.8c0.6,0,1,0.4,1,1s-0.4,1-1,1h-7.8c-0.6,0-1-0.4-1-1v-7.8
				C11.8,28.9,12.2,28.4,12.8,28.4z"/>
		</g>
	</g>
</g>
</svg>
