<?xml version="1.0" encoding="utf-8"?>
<!-- Generator: Adobe Illustrator 23.1.1, SVG Export Plug-In . SVG Version: 6.00 Build 0)  -->
<svg version="1.0" id="Ebene_1" xmlns="http://www.w3.org/2000/svg" xmlns:xlink="http://www.w3.org/1999/xlink" x="0px" y="0px"
	 viewBox="0 0 50 50" style="enable-background:new 0 0 50 50;" xml:space="preserve">
<style type="text/css">
	.st0{fill-rule:evenodd;clip-rule:evenodd;fill:#FFFFFF;}
	.st1{fill:#FFFFFF;}
	.st2{fill:none;stroke:#FFFFFF;stroke-width:2;stroke-miterlimit:10;}
	.st3{clip-path:url(#SVGID_2_);}
	.st4{clip-path:url(#SVGID_4_);}
</style>
<path class="st1" d="M37.1,25l4.8-5.6c0.4-0.4,0.3-1-0.1-1.4c-0.4-0.4-1-0.3-1.4,0.1l-4.6,5.3l-4.6-5.3c-0.4-0.4-1-0.5-1.4-0.1
	c-0.4,0.4-0.5,1-0.1,1.4l4.8,5.6l-4.8,5.6c-0.4,0.4-0.3,1,0.1,1.4c0.2,0.2,0.4,0.2,0.7,0.2c0.3,0,0.6-0.1,0.8-0.3l4.6-5.3l4.6,5.3
	c0.2,0.2,0.5,0.3,0.8,0.3c0.2,0,0.5-0.1,0.7-0.2c0.4-0.4,0.5-1,0.1-1.4L37.1,25z"/>
<path class="st1" d="M23.5,14l-5.6,4.9l-1.2,1.2H9.8c-0.6,0-1,0.4-1,1v7.7c0,0.6,0.4,1,1,1h6.9l1.2,1.2l5.6,4.9
	c0.5,0.4,1.3,0.1,1.3-0.6V25V14.6C24.8,13.9,24,13.6,23.5,14z"/>
</svg>
