<?xml version="1.0" encoding="utf-8"?>
<!-- Generator: Adobe Illustrator 23.1.1, SVG Export Plug-In . SVG Version: 6.00 Build 0)  -->
<svg version="1.0" id="Ebene_1" xmlns="http://www.w3.org/2000/svg" xmlns:xlink="http://www.w3.org/1999/xlink" x="0px" y="0px"
	 viewBox="0 0 50 50" style="enable-background:new 0 0 50 50;" xml:space="preserve">
<style type="text/css">
	.st0{fill-rule:evenodd;clip-rule:evenodd;fill:#FFFFFF;}
	.st1{fill:#FFFFFF;}
	.st2{fill:none;stroke:#FFFFFF;stroke-width:2;stroke-miterlimit:10;}
</style>
<g>
	<path class="st0" d="M17.8,15.1h14.5c1.5,0,2.6,1.2,2.6,2.6v14.5c0,1.5-1.2,2.6-2.6,2.6H17.8c-1.5,0-2.6-1.2-2.6-2.6V17.8
		C15.1,16.3,16.3,15.1,17.8,15.1z"/>
</g>
<path class="st1" d="M25,2.6c12.3,0,22.4,10,22.4,22.4S37.3,47.4,25,47.4S2.6,37.3,2.6,25S12.7,2.6,25,2.6 M25,0C11.2,0,0,11.2,0,25
	c0,13.8,11.2,25,25,25s25-11.2,25-25C50,11.2,38.8,0,25,0L25,0z"/>
</svg>
