<?xml version="1.0" encoding="utf-8"?>
<!-- Generator: Adobe Illustrator 23.1.1, SVG Export Plug-In . SVG Version: 6.00 Build 0)  -->
<svg version="1.0" xmlns="http://www.w3.org/2000/svg" xmlns:xlink="http://www.w3.org/1999/xlink" x="0px" y="0px"
	 viewBox="0 0 76 76" style="enable-background:new 0 0 76 76;" xml:space="preserve">
<style type="text/css">
	.st0{fill-rule:evenodd;clip-rule:evenodd;}
	.st1{stroke:#000000;stroke-width:2;stroke-linecap:round;stroke-miterlimit:10;}
	.st2{fill:none;stroke:#000000;stroke-width:2;stroke-linecap:round;stroke-miterlimit:10;}
	.st3{fill:none;stroke:#000000;stroke-width:2;stroke-miterlimit:10;}
	.st4{fill-rule:evenodd;clip-rule:evenodd;fill:none;stroke:#000000;stroke-width:2;stroke-miterlimit:10;}
	.st5{fill-rule:evenodd;clip-rule:evenodd;fill:#FFFFFF;}
	.st6{fill-rule:evenodd;clip-rule:evenodd;fill:none;stroke:#FFFFFF;stroke-width:2;stroke-miterlimit:10;}
	.st7{fill:#FFFFFF;}
	.st8{display:none;}
	.st9{display:inline;}
</style>
<g id="Ebene_1">
	<g>
		<path class="st7" d="M38,4c18.7,0,34,15.3,34,34S56.7,72,38,72S4,56.7,4,38S19.3,4,38,4 M38,0C17,0,0,17,0,38c0,21,17,38,38,38
			s38-17,38-38C76,17,59,0,38,0L38,0z"/>
	</g>
	<g>
		<path class="st5" d="M27,23h22c2.2,0,4,1.8,4,4v22c0,2.2-1.8,4-4,4H27c-2.2,0-4-1.8-4-4V27C23,24.8,24.8,23,27,23z"/>
	</g>
</g>
<g id="Ebene_2" class="st8">
</g>
</svg>
