<?xml version="1.0" encoding="utf-8"?>
<!-- Generator: Adobe Illustrator 23.1.1, SVG Export Plug-In . SVG Version: 6.00 Build 0)  -->
<svg version="1.0" id="Ebene_1" xmlns="http://www.w3.org/2000/svg" xmlns:xlink="http://www.w3.org/1999/xlink" x="0px" y="0px"
	 viewBox="0 0 50 50" style="enable-background:new 0 0 50 50;" xml:space="preserve">
<style type="text/css">
	.st0{fill-rule:evenodd;clip-rule:evenodd;fill:#FFFFFF;}
	.st1{fill:#FFFFFF;}
	.st2{fill:none;stroke:#FFFFFF;stroke-width:2;stroke-miterlimit:10;}
</style>
<g>
	<g>
		<path class="st1" d="M25,41c-8.8,0-16-7.2-16-16S16.2,9,25,9s16,7.2,16,16S33.8,41,25,41z M25,11c-7.7,0-14,6.3-14,14
			s6.3,14,14,14s14-6.3,14-14S32.7,11,25,11z"/>
	</g>
</g>
<g>
	<g>
		<path class="st1" d="M25,32.1c-0.5,0-1-0.2-1.3-0.5s-0.5-0.7-0.5-1.1c0-0.5,0.2-0.9,0.5-1.2s0.8-0.4,1.3-0.4
			c0.5,0,0.9,0.2,1.3,0.5s0.5,0.7,0.5,1.1c0,0.5-0.2,0.9-0.5,1.2S25.5,32.1,25,32.1z M26.6,17.9l-0.4,9.6h-2.5l-0.4-9.6H26.6z"/>
	</g>
</g>
</svg>
