<?xml version="1.0" encoding="utf-8"?>
<!-- Generator: Adobe Illustrator 23.1.1, SVG Export Plug-In . SVG Version: 6.00 Build 0)  -->
<svg version="1.0" xmlns="http://www.w3.org/2000/svg" xmlns:xlink="http://www.w3.org/1999/xlink" x="0px" y="0px"
	 viewBox="0 0 50 50" style="enable-background:new 0 0 50 50;" xml:space="preserve">
<style type="text/css">
	.st0{fill-rule:evenodd;clip-rule:evenodd;}
	.st1{stroke:#000000;stroke-width:2;stroke-linecap:round;stroke-miterlimit:10;}
	.st2{fill:none;stroke:#000000;stroke-width:2;stroke-linecap:round;stroke-miterlimit:10;}
	.st3{fill:none;stroke:#000000;stroke-width:2;stroke-miterlimit:10;}
	.st4{fill-rule:evenodd;clip-rule:evenodd;fill:none;stroke:#FFFFFF;stroke-width:2;stroke-miterlimit:10;}
	.st5{fill:#FFFFFF;}
	.st6{fill-rule:evenodd;clip-rule:evenodd;fill:#FFFFFF;}
	.st7{display:none;}
	.st8{display:inline;}
</style>
<g id="Ebene_1">
	<path class="st6" d="M25,9C16.2,9,9,16.2,9,25c0,8.8,7.2,16,16,16c8.8,0,16-7.2,16-16C41,16.2,33.8,9,25,9z M26.6,17.9l-0.4,9.6
		h-2.5l-0.4-9.6H26.6z M26.3,31.7C26,32,25.5,32.1,25,32.1c-0.5,0-1-0.2-1.3-0.5s-0.5-0.7-0.5-1.1c0-0.5,0.2-0.9,0.5-1.2
		s0.8-0.4,1.3-0.4c0.5,0,0.9,0.2,1.3,0.5s0.5,0.7,0.5,1.1C26.8,31,26.6,31.3,26.3,31.7z"/>
</g>
<g id="Ebene_2" class="st7">
</g>
</svg>
