<?xml version="1.0" encoding="utf-8"?>
<!-- Generator: Adobe Illustrator 23.1.1, SVG Export Plug-In . SVG Version: 6.00 Build 0)  -->
<svg version="1.0" id="Ebene_1" xmlns="http://www.w3.org/2000/svg" xmlns:xlink="http://www.w3.org/1999/xlink" x="0px" y="0px"
	 viewBox="0 0 50 50" style="enable-background:new 0 0 50 50;" xml:space="preserve">
<style type="text/css">
	.st0{fill-rule:evenodd;clip-rule:evenodd;fill:#FFFFFF;}
	.st1{fill:#FFFFFF;}
	.st2{fill:none;stroke:#FFFFFF;stroke-width:2;stroke-miterlimit:10;}
</style>
<g>
	<path class="st0" d="M24.9,33.2c-4.6,0-8.4-3.5-8.9-8h3.1l-4-5l-4,5H14c0.5,5.6,5.2,10,10.9,10c3.5,0,6.6-1.7,8.7-4.2l-1.3-1.6
		C30.7,31.7,28,33.2,24.9,33.2z"/>
	<path class="st0" d="M35.9,23.2c-0.5-5.6-5.2-10-10.9-10c-3.5,0-6.6,1.7-8.7,4.2l1.3,1.6c1.6-2.3,4.3-3.8,7.4-3.8
		c4.6,0,8.4,3.5,8.9,8h-3l4,5l4-5H35.9z"/>
</g>
<path class="st1" d="M29,9.7c1.6,0,1.8,0,4.5,2.7c1.7,1.7,3.3,2.5,4.3,2.9c0.6,0.2,1.3,0.4,2.2,0.4c0,0,0,0,0,0h2l2,0
	c1.4,0,1.9,0.6,2,2l0,18c0,1.4-0.6,2-2,2H25l-19,0c-1.4,0-2-0.6-2-2l0-18c0-1.4,0.6-2,2-2h3l1,0c0.8,0,1.5-0.2,2.1-0.4
	c1-0.4,2.6-1.2,4.3-2.9c2.7-2.7,2.9-2.7,4.5-2.7h4H29 M29,7.7h-4h0h-4c-2.4,0-3,0.4-5.9,3.3c-1.4,1.4-2.8,2.1-3.6,2.4
	c-0.5,0.2-0.9,0.3-1.4,0.3c0,0,0,0,0,0H9H6c0,0,0,0,0,0c-2.5,0-3.9,1.5-4,4v18c0,2.5,1.5,4,4,4h19h19c2.5,0,4-1.5,4-4v-18
	c0-2.5-1.5-4-4-4c0,0,0,0,0,0h-2h-2c0,0,0,0,0,0c-0.5,0-1-0.1-1.4-0.3c-0.9-0.3-2.2-1-3.6-2.4C32,8.1,31.4,7.7,29,7.7L29,7.7z"/>
</svg>
