<?xml version="1.0" encoding="utf-8"?>
<!-- Generator: Adobe Illustrator 23.1.1, SVG Export Plug-In . SVG Version: 6.00 Build 0)  -->
<svg version="1.0" id="Ebene_1" xmlns="http://www.w3.org/2000/svg" xmlns:xlink="http://www.w3.org/1999/xlink" x="0px" y="0px"
	 viewBox="0 0 50 50" style="enable-background:new 0 0 50 50;" xml:space="preserve">
<style type="text/css">
	.st0{fill-rule:evenodd;clip-rule:evenodd;fill:#FFFFFF;}
	.st1{fill:#FFFFFF;}
	.st2{fill:none;stroke:#FFFFFF;stroke-width:2;stroke-miterlimit:10;}
</style>
<g>
	<path class="st1" d="M41.9,16.8c-0.7-0.7-1.7-1.1-2.9-1.1h-2.9c-0.2,0-0.4,0-0.7-0.2c-0.5-0.2-1.3-0.6-2.2-1.5
		c-2.2-2.2-2.9-2.7-5-2.7h-5.8c-2.1,0-2.8,0.5-5,2.7c-0.9,0.9-1.7,1.3-2.2,1.5c-0.3,0.1-0.5,0.2-0.7,0.2h-2.9
		c-1.2,0-2.2,0.4-2.9,1.1c-0.7,0.7-1.1,1.7-1.1,2.9v13c0,1.2,0.4,2.2,1.1,2.9c0.7,0.7,1.7,1.1,2.9,1.1h13.7h13.7
		c1.2,0,2.2-0.4,2.9-1.1c0.7-0.7,1.1-1.7,1.1-2.9v-13C43,18.5,42.6,17.5,41.9,16.8z M40.9,32.7c0,0.6-0.1,1.1-0.4,1.4
		c-0.4,0.4-1,0.5-1.4,0.5H11.7c-0.4,0-1-0.1-1.4-0.5c-0.3-0.3-0.5-0.8-0.4-1.4v-13c0-0.4,0.1-1,0.5-1.4c0.3-0.3,0.7-0.4,1.3-0.4
		c0,0,0,0,0,0h2.9c0.6,0,1-0.1,1.4-0.3c0.7-0.3,1.8-0.8,3-2c2.1-2,2.2-2,3.5-2c0,0,0,0,0,0h5.8c1.3,0,1.4,0,3.5,2
		c1.2,1.2,2.3,1.7,3,2c0.4,0.1,0.8,0.3,1.4,0.3h2.9c1.2,0,1.8,0.6,1.8,1.8V32.7z"/>
	<path class="st1" d="M25.4,16.5c-2.4,0-4.5,1-6,2.6l1.3,1.7c1.1-1.3,2.8-2.2,4.7-2.2c3.2,0,5.8,2.4,6.1,5.4h-1.9l2.9,3.6l2.9-3.6
		h-1.8C33.2,19.8,29.7,16.5,25.4,16.5z"/>
	<path class="st1" d="M25.4,30.9c-3.2,0-5.8-2.4-6.1-5.4h1.9l-2.9-3.6l-2.9,3.6h1.8c0.4,4.2,3.9,7.5,8.2,7.5c2.4,0,4.5-1,6-2.6
		l-1.3-1.7C28.9,30,27.3,30.9,25.4,30.9z"/>
</g>
</svg>
