<?xml version="1.0" encoding="utf-8"?>
<!-- Generator: Adobe Illustrator 23.1.1, SVG Export Plug-In . SVG Version: 6.00 Build 0)  -->
<svg version="1.0" id="Ebene_1" xmlns="http://www.w3.org/2000/svg" xmlns:xlink="http://www.w3.org/1999/xlink" x="0px" y="0px"
	 viewBox="0 0 50 50" style="enable-background:new 0 0 50 50;" xml:space="preserve">
<style type="text/css">
	.st0{fill-rule:evenodd;clip-rule:evenodd;fill:#FFFFFF;}
	.st1{fill:#FFFFFF;}
	.st2{fill:none;stroke:#FFFFFF;stroke-width:2;stroke-miterlimit:10;}
</style>
<g>
	<g>
		<path class="st0" d="M25,0C11.2,0,0,11.2,0,25s11.2,25,25,25s25-11.2,25-25S38.8,0,25,0z M41.8,32.2c0,1.1-0.3,2.1-1,2.7
			c-0.7,0.7-1.6,1-2.7,1H25H12c-2.3,0-3.8-1.5-3.7-3.8V19.9c0-1.1,0.4-2.1,1-2.7c0.7-0.7,1.6-1,2.7-1h2.7c0.2,0,0.4-0.1,0.7-0.2
			c0.5-0.2,1.3-0.6,2.1-1.4c2.1-2.1,2.8-2.5,4.8-2.5h5.5c2,0,2.6,0.4,4.8,2.5c0.9,0.9,1.6,1.3,2.1,1.4c0.3,0.1,0.5,0.2,0.6,0.2H38
			c1.1,0,2.1,0.3,2.7,1c0.7,0.7,1,1.6,1,2.7V32.2z"/>
	</g>
	<g>
		<path class="st0" d="M38.1,18.1C38.1,18.1,38.1,18.1,38.1,18.1h-2.8c-0.5,0-1-0.1-1.4-0.3c-0.7-0.3-1.7-0.8-2.8-1.9
			c-2-2-2.1-2-3.4-2h-5.5c-1.2,0-1.4,0-3.3,2c-1.1,1.1-2.2,1.6-2.8,1.9c-0.4,0.1-0.8,0.3-1.4,0.3H12c0,0,0,0,0,0
			c-0.6,0-1,0.1-1.3,0.4c-0.4,0.4-0.4,0.9-0.4,1.3v12.4c0,1.2,0.6,1.7,1.8,1.7H38c1.2,0,1.8-0.6,1.7-1.7V19.9c0-0.4-0.1-1-0.4-1.3
			C39.1,18.3,38.6,18.1,38.1,18.1z M25,32.6c-4.1,0-7.5-3.2-7.8-7.2h-1.7l2.7-3.4l2.7,3.4h-1.8c0.3,2.9,2.8,5.2,5.8,5.2
			c1.8,0,3.4-0.8,4.5-2.1l1.3,1.6C29.3,31.6,27.3,32.6,25,32.6z M31.8,27.4L29,24h1.8c-0.3-2.9-2.8-5.2-5.8-5.2
			c-1.8,0-3.4,0.8-4.5,2.1l-1.3-1.6c1.4-1.5,3.5-2.5,5.7-2.5c4.1,0,7.5,3.2,7.8,7.2h1.7L31.8,27.4z"/>
	</g>
</g>
</svg>
