<?xml version="1.0" encoding="utf-8"?>
<!-- Generator: Adobe Illustrator 23.1.1, SVG Export Plug-In . SVG Version: 6.00 Build 0)  -->
<svg version="1.0" id="Ebene_1" xmlns="http://www.w3.org/2000/svg" xmlns:xlink="http://www.w3.org/1999/xlink" x="0px" y="0px"
	 viewBox="0 0 50 50" style="enable-background:new 0 0 50 50;" xml:space="preserve">
<style type="text/css">
	.st0{fill-rule:evenodd;clip-rule:evenodd;fill:#FFFFFF;}
	.st1{fill:#FFFFFF;}
	.st2{fill:none;stroke:#FFFFFF;stroke-width:2;stroke-miterlimit:10;}
</style>
<path class="st1" d="M25,2c12.7,0,23,10.3,23,23S37.7,48,25,48S2,37.7,2,25S12.3,2,25,2 M25,0C11.2,0,0,11.2,0,25s11.2,25,25,25
	s25-11.2,25-25S38.8,0,25,0L25,0z"/>
<g>
	<path class="st1" d="M40.8,17.2c-0.7-0.7-1.6-1-2.7-1h-2.8c-0.2,0-0.3,0-0.7-0.2c-0.5-0.2-1.3-0.6-2.1-1.4
		c-2.1-2.1-2.7-2.5-4.8-2.5h-5.5c-2,0-2.6,0.4-4.8,2.5c-0.9,0.9-1.6,1.3-2.1,1.4c-0.3,0.1-0.5,0.2-0.7,0.2H12c-1.1,0-2.1,0.3-2.7,1
		c-0.7,0.7-1,1.6-1,2.7v12.4c0,1.1,0.3,2.1,1,2.7c0.7,0.7,1.6,1,2.7,1h13h13.1c1.1,0,2.1-0.4,2.7-1c0.7-0.7,1-1.6,1-2.7V19.9
		C41.8,18.8,41.4,17.8,40.8,17.2z M39.8,32.2c0,0.6-0.1,1-0.4,1.3C39,33.9,38.4,34,38,34H12c-0.4,0-1-0.1-1.3-0.4
		c-0.3-0.3-0.4-0.7-0.4-1.3V19.9c0-0.4,0.1-1,0.4-1.3c0.3-0.3,0.7-0.4,1.3-0.4c0,0,0,0,0,0h2.7c0.6,0,1-0.1,1.4-0.3
		c0.7-0.3,1.7-0.8,2.8-1.9c2-1.9,2.1-2,3.3-2c0,0,0,0,0,0h5.5c1.2,0,1.4,0,3.3,2c1.1,1.1,2.2,1.6,2.8,1.9c0.4,0.1,0.8,0.3,1.4,0.3
		h2.8c1.1,0,1.7,0.6,1.7,1.7V32.2z"/>
	<path class="st1" d="M25,16.8c-2.3,0-4.3,1-5.7,2.5l1.3,1.6c1.1-1.3,2.7-2.1,4.5-2.1c3,0,5.5,2.3,5.8,5.2H29l2.7,3.4l2.7-3.4h-1.7
		C32.5,20,29.1,16.8,25,16.8z"/>
	<path class="st1" d="M25,30.6c-3,0-5.5-2.3-5.8-5.2H21l-2.7-3.4l-2.7,3.4h1.7c0.3,4,3.7,7.2,7.8,7.2c2.3,0,4.3-1,5.7-2.5l-1.3-1.6
		C28.4,29.7,26.8,30.6,25,30.6z"/>
</g>
</svg>
