<?xml version="1.0" encoding="utf-8"?>
<!-- Generator: Adobe Illustrator 23.1.1, SVG Export Plug-In . SVG Version: 6.00 Build 0)  -->
<svg version="1.0" id="Ebene_1" xmlns="http://www.w3.org/2000/svg" xmlns:xlink="http://www.w3.org/1999/xlink" x="0px" y="0px"
	 viewBox="0 0 50 50" style="enable-background:new 0 0 50 50;" xml:space="preserve">
<style type="text/css">
	.st0{fill-rule:evenodd;clip-rule:evenodd;fill:#FFFFFF;}
	.st1{fill:#FFFFFF;}
	.st2{fill:none;stroke:#FFFFFF;stroke-width:2;stroke-miterlimit:10;}
	.st3{clip-path:url(#SVGID_2_);}
	.st4{clip-path:url(#SVGID_4_);}
</style>
<g>
	<path class="st0" d="M40.9,17.1l-8-6v4c-6.7,0.3-12,5.7-12,12.5c0,0.6,0.1,1.2,0.1,1.8c0.8-5.7,5.8-10,11.9-10.3v4L40.9,17.1z"/>
	<path class="st1" d="M34.9,24.1v10c0,0.6-0.4,1-1,1h-18c-0.6,0-1-0.4-1-1v-18c0-0.6,0.4-1,1-1h10.2c1.5-0.9,3.1-1.5,4.9-1.8v-0.2
		h-15c-1.7,0-3,1.3-3,3v18c0,1.7,1.3,3,3,3h18c1.7,0,3-1.3,3-3V22.6L34.9,24.1z"/>
</g>
</svg>
