<?xml version="1.0" encoding="utf-8"?>
<!-- Generator: Adobe Illustrator 23.1.1, SVG Export Plug-In . SVG Version: 6.00 Build 0)  -->
<svg version="1.0" xmlns="http://www.w3.org/2000/svg" xmlns:xlink="http://www.w3.org/1999/xlink" x="0px" y="0px"
	 viewBox="0 0 50 50" style="enable-background:new 0 0 50 50;" xml:space="preserve">
<style type="text/css">
	.st0{fill-rule:evenodd;clip-rule:evenodd;}
	.st1{stroke:#000000;stroke-width:2;stroke-linecap:round;stroke-miterlimit:10;}
	.st2{fill:none;stroke:#000000;stroke-width:2;stroke-linecap:round;stroke-miterlimit:10;}
	.st3{fill:none;stroke:#000000;stroke-width:2;stroke-miterlimit:10;}
	.st4{fill-rule:evenodd;clip-rule:evenodd;fill:none;stroke:#000000;stroke-width:2;stroke-miterlimit:10;}
	.st5{fill-rule:evenodd;clip-rule:evenodd;fill:#FFFFFF;}
	.st6{fill:#FFFFFF;}
	.st7{display:none;}
	.st8{display:inline;}
</style>
<g id="Ebene_1">
	<g>
		<path class="st5" d="M40.9,17.1l-8-6v4c-6.7,0.3-12,5.7-12,12.5c0,0.6,0.1,1.2,0.1,1.8c0.8-5.7,5.8-10,11.9-10.3v4L40.9,17.1z"/>
		<path class="st6" d="M34.9,24.1v10c0,0.6-0.4,1-1,1h-18c-0.6,0-1-0.4-1-1v-18c0-0.6,0.4-1,1-1h10.2c1.5-0.9,3.1-1.5,4.9-1.8v-0.2
			h-15c-1.7,0-3,1.3-3,3v18c0,1.7,1.3,3,3,3h18c1.7,0,3-1.3,3-3V22.6L34.9,24.1z"/>
	</g>
</g>
<g id="Ebene_2" class="st7">
	<g id="pJASxe_1_" class="st8">
		
			<image style="overflow:visible;" width="43" height="39" id="pJASxe" xlink:href="603FFFDF2F5A4C0D.jpg"  transform="matrix(1.0878 0 0 1.0878 1.1113 3.8855)">
		</image>
	</g>
</g>
</svg>
