<?xml version="1.0" encoding="utf-8"?>
<!-- Generator: Adobe Illustrator 23.1.1, SVG Export Plug-In . SVG Version: 6.00 Build 0)  -->
<svg version="1.0" id="Ebene_1" xmlns="http://www.w3.org/2000/svg" xmlns:xlink="http://www.w3.org/1999/xlink" x="0px" y="0px"
	 viewBox="0 0 50 50" style="enable-background:new 0 0 50 50;" xml:space="preserve">
<style type="text/css">
	.st0{fill-rule:evenodd;clip-rule:evenodd;fill:#FFFFFF;}
	.st1{fill:#FFFFFF;}
	.st2{fill:none;stroke:#FFFFFF;stroke-width:2;stroke-miterlimit:10;}
	.st3{clip-path:url(#SVGID_2_);}
	.st4{clip-path:url(#SVGID_4_);}
</style>
<g>
	<g>
		<path class="st1" d="M28.8,11.5c1.2,0,1.3,0,3.4,2.1c1.4,1.4,2.8,2.1,3.7,2.5c0.5,0.2,1.4,0.4,2.2,0.4c0,0,0,0,0,0h1l3.1,0
			c0.8,0,0.9,0,1,1l0,18c0,0.4-0.2,0.9-0.6,1.3c-0.4,0.4-0.9,0.7-1.4,0.7H26.5l-17.4,0c-0.1,0-2,0-2-1l0-19c0-0.7,0.1-0.9,0.1-0.9
			c0,0,0.2-0.1,0.8-0.1c0,0,0,0,0,0h3l1,0c0.7,0,1.6-0.2,2.2-0.4c0.9-0.3,2.2-1,3.7-2.5c2.1-2.1,2.2-2.1,3.4-2.1h5.3H28.8 M28.8,9.5
			h-2.3h0h-5.3c-1.9,0-2.4,0.3-4.8,2.7c-1.2,1.2-2.3,1.7-3,2c-0.4,0.2-1.1,0.3-1.5,0.3c0,0,0,0,0,0h-1H8c0,0,0,0,0,0
			c-2,0-2.8,0.9-2.9,3v19c0,2.1,2,3,4,3h17.4h14.6c2,0,4-1.9,4-4v-18c0-2-0.9-3-3-3c0,0,0,0,0,0l-3.1,0h-1c0,0,0,0,0,0
			c-0.4,0-1.1-0.2-1.5-0.3c-0.7-0.3-1.8-0.8-3-2C31.2,9.8,30.7,9.5,28.8,9.5L28.8,9.5z"/>
	</g>
</g>
<polygon class="st0" points="16.1,22.5 17.8,25 19.6,27.5 16.1,27.5 12.6,27.5 14.3,25 "/>
<polygon class="st0" points="34.1,27.5 32.3,25 30.6,22.5 34.1,22.5 37.6,22.5 35.8,25 "/>
<g>
	<path class="st1" d="M17.6,22c1.2-3,4.1-5.1,7.4-5.1c3.7,0,6.8,2.5,7.7,5.9l2.1,0c-1-4.5-5-7.9-9.8-7.9c-3.8,0-7.1,2.1-8.8,5.2
		L17.6,22z"/>
	<path class="st1" d="M32.5,27.8c-1.2,3-4.1,5.1-7.5,5.1c-3.7,0-6.8-2.5-7.7-5.9l-2.1,0c1,4.5,5,7.9,9.8,7.9c3.8,0,7.1-2.1,8.8-5.2
		L32.5,27.8z"/>
</g>
</svg>
