<?xml version="1.0" encoding="utf-8"?>
<!-- Generator: Adobe Illustrator 23.1.1, SVG Export Plug-In . SVG Version: 6.00 Build 0)  -->
<svg version="1.0" id="Ebene_1" xmlns="http://www.w3.org/2000/svg" xmlns:xlink="http://www.w3.org/1999/xlink" x="0px" y="0px"
	 viewBox="0 0 50 50" style="enable-background:new 0 0 50 50;" xml:space="preserve">
<style type="text/css">
	.st0{fill-rule:evenodd;clip-rule:evenodd;fill:#FFFFFF;}
	.st1{fill:#FFFFFF;}
	.st2{fill:none;stroke:#FFFFFF;stroke-width:2;stroke-miterlimit:10;}
	.st3{clip-path:url(#SVGID_2_);}
	.st4{clip-path:url(#SVGID_4_);}
</style>
<g>
	<g>
		<path class="st1" d="M30.9,31.5c-0.4,0-0.8-0.2-0.9-0.6c-0.2-0.5,0-1.1,0.5-1.3c1.8-0.8,3-2.6,3-4.6c0-2-1.2-3.8-3.1-4.6
			c-0.5-0.2-0.7-0.8-0.5-1.3c0.2-0.5,0.8-0.7,1.3-0.5c2.6,1.1,4.3,3.6,4.3,6.4c0,2.8-1.7,5.3-4.2,6.4C31.1,31.5,31,31.5,30.9,31.5z"
			/>
	</g>
	<g>
		<path class="st1" d="M33.7,36.5c-0.4,0-0.7-0.2-0.9-0.6c-0.2-0.5,0-1.1,0.5-1.3c3.8-1.7,6.2-5.5,6.2-9.6s-2.4-7.9-6.2-9.6
			c-0.5-0.2-0.7-0.8-0.5-1.3c0.2-0.5,0.8-0.7,1.3-0.5c4.5,2,7.4,6.5,7.4,11.4c0,4.9-2.9,9.4-7.4,11.4C34,36.5,33.8,36.5,33.7,36.5z"
			/>
	</g>
</g>
<path class="st1" d="M23.5,14l-5.6,4.9l-1.2,1.2H9.8c-0.6,0-1,0.4-1,1v7.7c0,0.6,0.4,1,1,1h6.9l1.2,1.2l5.6,4.9
	c0.5,0.4,1.3,0.1,1.3-0.6V25V14.6C24.8,13.9,24,13.6,23.5,14z"/>
</svg>
